# xmcd
#
# Track frame offsets: 
#        150
#        9750
#        23775
#        41550
#        54075
#        66247
#        79050
#        91200
#        100650
#        114600
#        137587
#        154650
#        166072
#        182667
#
# Disc length: 2655 seconds
#
# Revision: 1
# Processed by: cddbd v1.5.2PL0 Copyright (c) Steve Scherf et al.
# Submitted via: ExactAudioCopy v0.95b4
#
DISCID=9b0a5d0e
DTITLE=Krüger Brothers - Behind the Barn Vol. 2
DYEAR=1900
DGENRE=Bluegrass
TTITLE0=Old Joe Clark
TTITLE1=One more ride
TTITLE2=The Cockoo
TTITLE3=Nola
TTITLE4=Little cabin home on the hill
TTITLE5=Flatt did it
TTITLE6=Trouble in mind
TTITLE7=Sally Ann
TTITLE8=Canaan's Land
TTITLE9=Reuben's Train
TTITLE10=Deep Ellum Blues
TTITLE11=Gold Rush
TTITLE12=I've been all around this world
TTITLE13=Lamp lighting time in the valley
EXTD=
EXTT0=
EXTT1=
EXTT2=
EXTT3=
EXTT4=
EXTT5=
EXTT6=
EXTT7=
EXTT8=
EXTT9=
EXTT10=
EXTT11=
EXTT12=
EXTT13=
PLAYORDER=
